<?xml version="1.0" encoding="iso-8859-1"?>
<!-- Uploaded to: SVG Repo, www.svgrepo.com, Generator: SVG Repo Mixer Tools -->
<svg fill="#000000" height="800px" width="800px" version="1.1" id="Layer_1" xmlns="http://www.w3.org/2000/svg" xmlns:xlink="http://www.w3.org/1999/xlink" 
	 viewBox="0 0 511.999 511.999" xml:space="preserve">
<g>
	<g>
		<path d="M443.953,236.339h-64.527c-3.966-17.176-19.375-30.025-37.74-30.025c-18.367,0-33.776,12.849-37.742,30.025h-24.18
			v-22.496c7.402-3.337,12.575-10.772,12.575-19.404c0-8.633-5.173-16.065-12.575-19.403v-62.897
			c0-8.393,6.829-15.221,15.223-15.221c0.581,0,1.159-0.035,1.734-0.074l12.975,17.459c5.034,6.773,13.081,10.818,21.526,10.818
			c5.791,0,11.316-1.83,15.973-5.292c7.005-5.203,10.803-13.346,10.785-21.625c13.519-1.356,24.109-12.801,24.109-26.672
			c0-13.871-10.589-25.313-24.109-26.669c0.019-8.278-3.78-16.423-10.785-21.626c-4.657-3.462-10.182-5.291-15.972-5.291
			c-8.445,0-16.494,4.044-21.527,10.817l-14,18.84c-0.237-0.007-0.472-0.026-0.709-0.026c-4.445,0-8.809,0.462-13.077,1.343
			l2.685-18.206c2.152-14.624-7.992-28.272-22.61-30.425C260.683,0.098,259.36,0,258.053,0c-7.268,0-14.063,3.001-18.985,7.956
			c-4.773-3.912-10.701-6.041-16.955-6.041c-7.159,0-13.891,2.788-18.956,7.853c-9.807,9.807-10.41,25.39-1.808,35.906
			c-5.868,5.84-8.94,14.285-7.667,22.917c1.924,13.054,13.315,22.898,26.498,22.9h0.001c1.306,0,2.626-0.096,3.928-0.288
			l0.365-0.055c-4.073,3.881-6.627,9.34-6.627,15.395c0,2.647,0.508,5.173,1.396,7.514c-0.67-0.041-1.343-0.069-2.017-0.088
			L203.74,95.821c-5.034-6.773-13.082-10.817-21.528-10.817c-5.793,0-11.316,1.829-15.974,5.292
			c-7.002,5.205-10.8,13.346-10.782,21.624c-13.52,1.356-24.11,12.801-24.11,26.672c0,13.87,10.592,25.313,24.112,26.669
			c-0.019,8.279,3.779,16.423,10.781,21.627c4.657,3.46,10.182,5.289,15.973,5.289c8.448,0,16.496-4.044,21.53-10.818l13.353-17.968
			c7.502,0.937,13.331,7.339,13.331,15.089v57.859h-36.461c-6.068-13.914-19.805-23.146-35.481-23.146s-29.413,9.232-35.481,23.146
			H68.046c-4.813,0-8.715,3.901-8.715,8.715v53.477c0,4.814,3.902,8.715,8.715,8.715h15.098l41.505,197.828
			c0.847,4.036,4.406,6.926,8.529,6.926h245.649c4.124,0,7.682-2.89,8.529-6.926l41.508-197.828h15.089
			c4.814,0,8.715-3.901,8.715-8.715v-53.477C452.668,240.24,448.766,236.339,443.953,236.339z M303.725,66.048
			c0.093-0.127,0.181-0.258,0.267-0.389l19.693-26.5c1.787-2.404,4.534-3.785,7.538-3.785c2.018,0,3.947,0.64,5.578,1.852
			c3.734,2.774,4.858,7.94,2.617,12.016c-1.485,2.699-1.434,5.984,0.134,8.636c1.569,2.652,4.421,4.28,7.502,4.28h8.233
			c5.169,0,9.373,4.204,9.373,9.373c0,5.17-4.204,9.375-9.373,9.375h-8.235c-3.082,0-5.933,1.627-7.502,4.281
			c-1.569,2.652-1.62,5.936-0.134,8.636c2.243,4.076,1.119,9.24-2.616,12.015c-1.629,1.211-3.559,1.852-5.578,1.852
			c-3.003,0-5.75-1.38-7.537-3.785l-19.594-26.368c-0.102-0.157-0.208-0.311-0.318-0.46c-1.203-1.628-1.838-3.546-1.838-5.544
			C301.934,69.56,302.553,67.664,303.725,66.048z M209.66,144.141c-0.071,0.095-0.139,0.192-0.206,0.289
			c-0.031,0.047-0.062,0.094-0.093,0.141l-19.612,26.393c-1.787,2.404-4.534,3.784-7.539,3.784c-2.018,0-3.947-0.64-5.576-1.85
			c-3.732-2.775-4.856-7.941-2.613-12.019c1.485-2.699,1.434-5.983-0.135-8.636c-1.569-2.652-4.42-4.28-7.502-4.28h-8.234
			c-5.17,0-9.375-4.204-9.375-9.373c0-5.17,4.205-9.375,9.375-9.375h8.233c3.082,0,5.934-1.627,7.502-4.28
			c1.569-2.653,1.62-5.935,0.134-8.637c-2.242-4.075-1.117-9.24,2.616-12.015c1.629-1.211,3.558-1.851,5.578-1.851
			c3.004,0,5.751,1.379,7.538,3.784l19.701,26.51c0.082,0.128,0.168,0.253,0.258,0.376c1.174,1.619,1.794,3.515,1.794,5.487
			C211.502,141.112,210.5,143,209.66,144.141z M341.685,223.744c8.643,0,16.088,5.183,19.428,12.595h-38.856
			C325.596,228.927,333.039,223.744,341.685,223.744z M221.568,73.957c-0.461,0.069-0.927,0.102-1.386,0.102c0,0,0,0-0.001,0
			c-4.603,0-8.583-3.444-9.255-8.013c-0.679-4.6,2.179-9.046,6.646-10.342c2.96-0.858,5.245-3.216,6.012-6.2
			c0.768-2.984-0.099-6.153-2.278-8.332l-5.824-5.825c-3.654-3.656-3.654-9.603-0.001-13.256c1.772-1.771,4.127-2.747,6.632-2.747
			c2.503,0,4.857,0.976,6.628,2.747l5.822,5.822c2.179,2.176,5.342,3.043,8.33,2.279c2.984-0.767,5.342-3.051,6.2-6.011
			c1.283-4.418,5.725-7.328,10.349-6.648c5.112,0.752,8.659,5.528,7.907,10.639l-4.822,32.699c-0.029,0.142-0.056,0.285-0.079,0.429
			c-0.314,1.971-1.215,3.751-2.613,5.148c-1.78,1.781-3.823,2.408-5.222,2.619c-0.17,0.026-0.339,0.058-0.509,0.093L221.568,73.957z
			 M242.998,106.542c0,2.128-1.731,3.859-3.859,3.859c-2.129,0-3.861-1.731-3.861-3.859s1.733-3.858,3.861-3.858
			C241.266,102.684,242.998,104.414,242.998,106.542z M227.165,148.112c1.155-3.019,1.766-6.226,1.766-9.52
			c0-1.82-0.2-3.612-0.558-5.364c2.39,0.701,4.734,1.587,7.016,2.675c1.189,0.566,2.469,0.847,3.747,0.847
			c1.622,0,3.238-0.453,4.653-1.346c2.529-1.597,4.062-4.378,4.062-7.37v-2.087c7.402-3.337,12.575-10.771,12.575-19.403
			c0-6.388-2.841-12.114-7.311-16.018c0.698-1.346,1.462-2.659,2.29-3.937l1.7-0.251c0.221-0.033,0.443-0.073,0.662-0.123
			c5.497-0.945,10.466-3.512,14.393-7.441c3.069-3.068,5.294-6.775,6.578-10.864c2.074-0.767,4.189-1.39,6.345-1.852
			c-0.373,1.787-0.58,3.616-0.58,5.475c0,3.172,0.571,6.264,1.642,9.182c-13.722,3.865-23.812,16.485-23.812,31.424v62.898
			c-7.401,3.337-12.574,10.771-12.574,19.401c0,8.633,5.173,16.065,12.574,19.403v22.498h-14.481v-57.859
			C247.851,164.699,239.265,152.895,227.165,148.112z M274.909,194.437c0,2.129-1.731,3.86-3.859,3.86
			c-2.129,0-3.86-1.731-3.86-3.86c0-2.128,1.731-3.858,3.86-3.858C273.177,190.58,274.909,192.31,274.909,194.437z M158.479,230.624
			c5.592,0,10.735,2.132,14.57,5.716h-29.141C147.745,232.756,152.889,230.624,158.479,230.624z M371.75,494.57H140.254
			l-39.301-187.324h310.101L371.75,494.57z M76.761,289.816V253.77h358.477v36.047H76.761z"/>
	</g>
</g>
</svg>